<svg width="80" height="62" viewBox="0 0 80 62" fill="none" xmlns="http://www.w3.org/2000/svg">
    <path d="M32.005 0h-10l-10 29.986h10L32.004 0zM10 0H0v62h10V0zM40 0v11.67h9.952l-.032-1.991L70 9.736v42.567l-21.536-.206.007-2.12H40V62h40V0H40z" fill="#8C3D3D"/>
    <path d="m34.207 46.02 3.102-5.572-.9 1.617 5.595-10.051h-10l-5 8.982-5-8.983h-10l10 17.965V62h10.041V49.905l2.162-3.884z" fill="#8C3D3D"/>
    <path d="M62.306 14.48H32.3v15.77h9.382v-7.987l12.735.101v15.771H41.31L36.9 46.021h25.405V14.479z" fill="#8C3D3D"/>
</svg>
